<svg width="54" height="54" viewBox="0 0 54 54" fill="none" xmlns="http://www.w3.org/2000/svg">
<path d="M54 12.285C53.9697 11.1201 53.8795 9.95762 53.73 8.802C53.5284 7.78984 53.1924 6.80915 52.731 5.886C52.2484 4.88458 51.6003 3.97177 50.814 3.186C50.0204 2.40895 49.1092 1.762 48.114 1.269C47.1896 0.8166 46.2089 0.489708 45.198 0.297C44.0534 0.125548 42.8991 0.0263523 41.742 0H12.285C11.1201 0.0303383 9.95762 0.120457 8.802 0.27C7.78984 0.471605 6.80915 0.807579 5.886 1.269C4.88458 1.75159 3.97177 2.39969 3.186 3.186C2.40895 3.97956 1.762 4.89076 1.269 5.886C0.8166 6.81038 0.489708 7.79106 0.297 8.802C0.125548 9.94662 0.0263523 11.1009 0 12.258C0 12.771 0 13.5 0 13.716V40.284C0 40.581 0 41.229 0 41.715C0.0303383 42.8799 0.120457 44.0424 0.27 45.198C0.471605 46.2102 0.807579 47.1908 1.269 48.114C1.75159 49.1154 2.39969 50.0282 3.186 50.814C3.97956 51.591 4.89076 52.238 5.886 52.731C6.81038 53.1834 7.79106 53.5103 8.802 53.703C9.94662 53.8745 11.1009 53.9736 12.258 54H41.715C42.8799 53.9697 44.0424 53.8795 45.198 53.73C46.2102 53.5284 47.1908 53.1924 48.114 52.731C49.1154 52.2484 50.0282 51.6003 50.814 50.814C51.591 50.0204 52.238 49.1092 52.731 48.114C53.1834 47.1896 53.5103 46.2089 53.703 45.198C53.8745 44.0534 53.9736 42.8991 54 41.742C54 41.229 54 40.581 54 40.284V13.716C54 13.5 54 12.771 54 12.285ZM27.621 45.9C24.3785 45.884 21.1927 45.0481 18.36 43.47L8.1 46.17L10.8 36.126C9.05881 33.2004 8.12696 29.8644 8.1 26.46C8.11075 22.6339 9.25345 18.8965 11.3842 15.7186C13.5149 12.5407 16.5384 10.0643 20.0738 8.60143C23.6092 7.13853 27.4984 6.75451 31.2517 7.49773C35.0049 8.24096 38.4543 10.0782 41.1654 12.778C43.8765 15.4779 45.728 18.9196 46.4868 22.6697C47.2457 26.4198 46.8778 30.3106 45.4296 33.8521C43.9814 37.3935 41.5177 40.4273 38.3486 42.5712C35.1796 44.7151 31.447 45.8733 27.621 45.9ZM27.621 10.449C24.7585 10.4818 21.9558 11.2725 19.4982 12.7406C17.0406 14.2087 15.016 16.3019 13.6304 18.8069C12.2448 21.3119 11.5478 24.1394 11.6102 27.0014C11.6727 29.8634 12.4924 32.6578 13.986 35.1L14.364 35.721L12.744 41.634L18.9 39.96L19.494 40.311C21.9498 41.7575 24.7439 42.5306 27.594 42.552C31.8905 42.552 36.011 40.8452 39.0491 37.8071C42.0872 34.769 43.794 30.6485 43.794 26.352C43.794 22.0555 42.0872 17.935 39.0491 14.8969C36.011 11.8588 31.8905 10.152 27.594 10.152L27.621 10.449ZM37.071 33.453C36.7174 34.0429 36.2438 34.5519 35.6811 34.9472C35.1183 35.3426 34.4788 35.6154 33.804 35.748C32.7957 35.9323 31.7575 35.8674 30.78 35.559C29.8602 35.2714 28.9586 34.9288 28.08 34.533C24.7421 32.8581 21.8955 30.3464 19.818 27.243C18.6891 25.8052 18.0041 24.0693 17.847 22.248C17.8309 21.4914 17.974 20.7399 18.2671 20.0422C18.5601 19.3445 18.9965 18.7162 19.548 18.198C19.7104 18.0138 19.9097 17.8658 20.133 17.7635C20.3562 17.6612 20.5984 17.6068 20.844 17.604H21.6C21.897 17.604 22.302 17.604 22.68 18.441C23.058 19.278 24.057 21.789 24.192 22.032C24.2583 22.1615 24.2929 22.305 24.2929 22.4505C24.2929 22.596 24.2583 22.7395 24.192 22.869C24.0726 23.1624 23.9087 23.4356 23.706 23.679C23.463 23.976 23.193 24.327 22.977 24.543C22.761 24.759 22.491 25.029 22.761 25.515C23.4956 26.7548 24.405 27.8824 25.461 28.863C26.611 29.8792 27.9258 30.6918 29.349 31.266C29.835 31.509 30.132 31.482 30.402 31.266C30.672 31.05 31.617 29.862 31.941 29.376C32.265 28.89 32.589 28.971 33.021 29.133C33.453 29.295 35.856 30.456 36.342 30.699C36.828 30.942 37.125 31.05 37.26 31.266C37.3771 31.9727 37.312 32.6975 37.071 33.372V33.453Z" fill="black"/>
</svg>
