<svg width="54" height="54" viewBox="0 0 54 54" fill="none" xmlns="http://www.w3.org/2000/svg">
<path d="M43.875 0C46.6641 0 49.0488 0.990234 51.0293 2.9707C53.0098 4.95117 54 7.33594 54 10.125V43.875C54 46.6641 53.0098 49.0488 51.0293 51.0293C49.0488 53.0098 46.6641 54 43.875 54H37.2656V33.082H44.2617L45.3164 24.9258H37.2656V19.7227C37.2656 18.4102 37.541 17.4258 38.0918 16.7695C38.6426 16.1133 39.7148 15.7852 41.3086 15.7852L45.5977 15.75V8.47266C44.1211 8.26172 42.0352 8.15625 39.3398 8.15625C36.1523 8.15625 33.6035 9.09375 31.6934 10.9688C29.7832 12.8437 28.8281 15.4922 28.8281 18.9141V24.9258H21.7969V33.082H28.8281V54H10.125C7.33594 54 4.95117 53.0098 2.9707 51.0293C0.990234 49.0488 0 46.6641 0 43.875V10.125C0 7.33594 0.990234 4.95117 2.9707 2.9707C4.95117 0.990234 7.33594 0 10.125 0H43.875Z" fill="black"/>
</svg>
