<svg width="55" height="55" viewBox="0 0 55 55" fill="none" xmlns="http://www.w3.org/2000/svg">
<path d="M9.53359 16.5H42.5336C42.8253 16.5 43.1051 16.3842 43.3114 16.1779C43.5177 15.9716 43.6336 15.6918 43.6336 15.4C43.6336 15.1083 43.5177 14.8285 43.3114 14.6222C43.1051 14.4159 42.8253 14.3 42.5336 14.3H9.53359C9.24186 14.3 8.96207 14.4159 8.75578 14.6222C8.54949 14.8285 8.43359 15.1083 8.43359 15.4C8.43359 15.6918 8.54949 15.9716 8.75578 16.1779C8.96207 16.3842 9.24186 16.5 9.53359 16.5ZM9.53359 40.7H42.5336C42.8253 40.7 43.1051 40.5842 43.3114 40.3779C43.5177 40.1716 43.6336 39.8918 43.6336 39.6C43.6336 39.3083 43.5177 39.0285 43.3114 38.8222C43.1051 38.6159 42.8253 38.5 42.5336 38.5H9.53359C9.24186 38.5 8.96207 38.6159 8.75578 38.8222C8.54949 39.0285 8.43359 39.3083 8.43359 39.6C8.43359 39.8918 8.54949 40.1716 8.75578 40.3779C8.96207 40.5842 9.24186 40.7 9.53359 40.7ZM9.53359 28.6H42.5336C42.8253 28.6 43.1051 28.4842 43.3114 28.2779C43.5177 28.0716 43.6336 27.7918 43.6336 27.5C43.6336 27.2083 43.5177 26.9285 43.3114 26.7222C43.1051 26.5159 42.8253 26.4 42.5336 26.4H9.53359C9.24186 26.4 8.96207 26.5159 8.75578 26.7222C8.54949 26.9285 8.43359 27.2083 8.43359 27.5C8.43359 27.7918 8.54949 28.0716 8.75578 28.2779C8.96207 28.4842 9.24186 28.6 9.53359 28.6Z" fill="white"/>
</svg>
